# xmcd
#
# Track frame offsets: 
#        150
#        44275
#        87809
#        123646
#        160586
#        196382
#        240775
#        281117
#        314166
#
# Disc length: 4585 seconds
#
# Revision: 1
# Processed by: cddbd v1.5.2PL0 Copyright (c) Steve Scherf et al.
# Submitted via: ExactAudioCopyFreeDBPlugin 1.0
#
DISCID=7611e709
DTITLE=Andreas Fröhlich - Eragon [CD11)
DYEAR=2005
DGENRE=Hörbuch
TTITLE0=Du Súndavar Freohr (Teil 1)
TTITLE1=Du Súndavar Freohr (Teil 2)
TTITLE2=Der Kampf mit dem Schatten (Teil 1)
TTITLE3=Der Kampf mit dem Schatten (Teil 2)
TTITLE4=Der Kampf mit dem Schatten (Teil 3)
TTITLE5=Krieger und Heiler zugleich (Teil 1)
TTITLE6=Krieger und Heiler zugleich (Teil 2)
TTITLE7=Wasser aus Sand (Teil 1)
TTITLE8=Wasser aus Sand (Teil 2)
EXTD=
EXTT0=
EXTT1=
EXTT2=
EXTT3=
EXTT4=
EXTT5=
EXTT6=
EXTT7=
EXTT8=
PLAYORDER=
